<svg width="376" height="223" viewBox="0 0 376 223" fill="none" xmlns="http://www.w3.org/2000/svg">
<path d="M374.938 52.5037H356.694V1.06175C356.694 0.477789 356.216 0 355.632 0H297.077C296.79 0 296.514 0.116793 296.323 0.318526L284.015 12.8897H265.049L254.525 0.382231C254.323 0.138028 254.026 0 253.707 0H232.996V2.12351H253.219L263.743 14.631C263.944 14.8752 264.242 15.0132 264.56 15.0132H284.472C284.758 15.0132 285.034 14.8964 285.226 14.6947L297.533 2.12351H354.581V53.5654C354.581 54.1494 355.059 54.6272 355.643 54.6272H373.887V163.393H355.643C355.313 163.393 355.005 163.542 354.804 163.797L310.171 220.876H29.7873L2.12387 189.417V2.12351H123.199V0H1.06194C0.477872 0 0 0.477789 0 1.06175V189.82C0 190.075 0.0955743 190.33 0.265484 190.521L28.513 222.639C28.7148 222.873 29.0015 223 29.3095 223H310.68C311.009 223 311.317 222.851 311.519 222.597L356.152 165.517H374.938C375.522 165.517 376 165.039 376 164.455V53.5654C376 52.9815 375.522 52.5037 374.938 52.5037Z" fill="white"/>
</svg>